<?xml version="1.0" encoding="UTF-8"?>
<!-- Generator: Adobe Illustrator 17.1.0, SVG Export Plug-In . SVG Version: 6.00 Build 0)  -->
<!DOCTYPE svg PUBLIC "-//W3C//DTD SVG 1.1//EN" "http://www.w3.org/Graphics/SVG/1.1/DTD/svg11.dtd">
<svg version="1.1" id="Capa_1" xmlns="http://www.w3.org/2000/svg" xmlns:xlink="http://www.w3.org/1999/xlink" x="0px" y="0px" viewBox="0 0 141.7 183" enable-background="new 0 0 141.7 183" xml:space="preserve">
<g>
	<g>
		<path fill="#FFFFFF" stroke="#145093" stroke-width="7.3844" d="M71.1,5.1C51,23.1,27.8,26,3.7,26.1v87.1    c6.3,88.2,126.8,88.2,134.3,0l-0.1-87.1C113.8,26,90.2,23.6,71.1,5.1z"/>
		<path fill="none" stroke="#145093" stroke-width="3.6916" d="M70.7,64.4c26.4,0,48,21.7,48,48.2s-21.6,48.2-48,48.2    s-48-21.7-48-48.2C22.7,86.1,44.3,64.4,70.7,64.4z"/>
		<path fill="#145093" stroke="#145093" stroke-width="3.6916" d="M25.4,96.8h90.6c-8.7-21.3-24.4-31.3-46-32.2    C48,65.6,33.6,76.9,25.4,96.8z"/>
		<path fill="#145093" stroke="#145093" stroke-width="3.6916" d="M25.3,127.9h90.9c-7.5,19.9-22.7,31.3-45.3,32.7    C47.8,160.4,31.8,146.1,25.3,127.9z"/>
		<polygon fill="#FFFFFF" stroke="#FFFFFF" stroke-width="0.2205" points="46.8,99.5 71.1,58.3 94.9,99.5   "/>
		<g>
			<g>
				<polygon fill="#00BBEE" stroke="#00BBEE" stroke-width="0.2205" points="66.9,105.7 68.6,106.8 66.2,113.5 61.4,116.2 58,116.2           "/>
				<polygon fill="#00BBEE" stroke="#00BBEE" stroke-width="0.2205" points="65.1,102.6 66,104.2 53.8,114.6 45,116.2 44.9,111.4           "/>
				<polygon fill="#00BBEE" stroke="#00BBEE" stroke-width="0.2205" points="46.5,105 64.4,101.3 64.4,100.1 49.6,98.9     "/>
				<polygon fill="#00BBEE" stroke="#00BBEE" stroke-width="0.2205" points="52.9,96.2 64.8,98.6 65.2,97.6 55.9,93     "/>
				<path fill="#00BBEE" stroke="#00BBEE" stroke-width="0.2205" d="M53.7,87.1l12.2,9.7l1.3-1.2L57,82.8      C57,82.8,53.6,87.2,53.7,87.1z"/>
				<polygon fill="#00BBEE" stroke="#00BBEE" stroke-width="0.2205" points="68,95.1 69.5,94.5 63.3,72.8 59.3,78.7     "/>
			</g>
			<g>
				<polygon fill="#00BBEE" stroke="#00BBEE" stroke-width="0.2205" points="74.9,105.7 73.3,106.8 76.1,115.5 80.3,116.2       83.8,116.2     "/>
				<polygon fill="#00BBEE" stroke="#00BBEE" stroke-width="0.2205" points="76.7,102.6 75.7,104.2 89.7,115.9 96.8,116.2 97,111.4           "/>
				<polygon fill="#00BBEE" stroke="#00BBEE" stroke-width="0.2205" points="95.3,105 77.3,101.3 77.3,100.1 92,98.9     "/>
				<polygon fill="#00BBEE" stroke="#00BBEE" stroke-width="0.2205" points="88.9,96.2 76.9,98.6 76.5,97.6 85.8,93     "/>
				<path fill="#00BBEE" stroke="#00BBEE" stroke-width="0.2205" d="M88,87.1l-12.2,9.7l-1.3-1.2l10.2-12.9      C84.7,82.8,88.2,87.2,88,87.1z"/>
				<polygon fill="#00BBEE" stroke="#00BBEE" stroke-width="0.2205" points="73.6,95.1 72.4,94.5 78.5,72.8 82.4,78.7     "/>
			</g>
			<g>
				<polygon fill="#00BBEE" stroke="#00BBEE" stroke-width="0.2205" points="70,107.3 71.6,107.4 72.8,116.2 68.7,116.2     "/>
				<polygon fill="#00BBEE" stroke="#00BBEE" stroke-width="0.2205" points="67.8,63.9 70.4,94.4 71.5,94.4 73.9,63.8 71.1,57.4           "/>
			</g>
		</g>
		<path fill="none" stroke="#145093" stroke-width="3.3222" d="M99,117.8L42,117.9c-0.3-1.5-0.4-3.1-0.4-4.7c0-16.1,13.1-29,29-29    s28.9,13,28.9,29C99.5,115.1,99.4,115.9,99,117.8z"/>
		<path fill="none" stroke="#EA212E" stroke-width="3.3222" d="M95.6,117.7l-49.8-0.1c-0.1-0.9-0.3-3.6-0.3-4.4    c0-14,11.3-25.2,25.2-25.2s25.2,11.2,25.2,25.2C95.8,114,95.6,116.8,95.6,117.7z"/>
		<path fill="none" stroke="#009650" stroke-width="3.3222" d="M97.5,117.4H43.8c-0.1-1-0.3-3.2-0.3-4.1c0-15,12.1-27.1,27.1-27.1    s27.1,12.1,27.1,27.1C97.8,114.4,97.7,116.3,97.5,117.4z"/>
		<polygon fill="#FFFFFF" stroke="#FFFFFF" stroke-width="0.2205" points="38.2,115.9 25.9,137.9 116.8,137.9 104.8,115.9   "/>
		<g>
			<g>
				<g>
					<line fill="none" stroke="#145093" stroke-width="2.0514" x1="34.3" y1="121.4" x2="107.3" y2="121.3"/>
				</g>
			</g>
			<g>
				<g>
					<line fill="none" stroke="#145093" stroke-width="2.0514" x1="35.7" y1="118.9" x2="106.4" y2="118.9"/>
				</g>
			</g>
			<g>
				<g>
					<line fill="none" stroke="#145093" stroke-width="2.0514" x1="36.8" y1="116.3" x2="105" y2="116.3"/>
				</g>
			</g>
		</g>
		<path fill="#FFFFFF" stroke="#FFFFFF" stroke-width="0.2205" d="M70.9,93.5c3.8,0,7,3.1,7,7s-3.2,7-7,7c-3.9,0-7-3.1-7-7    S67,93.5,70.9,93.5z"/>
		<g>
			<polygon fill="#145093" points="37,162.5 41.4,155.1 43,156 43,162.7 46,157.9 47.4,158.6 42.9,166 41.4,165.1 41.2,158.5      38.5,163.3    "/>
			<polygon fill="#145093" points="44.6,166.7 48.1,158.9 49.6,159.7 46.1,167.3    "/>
			<path fill="#145093" d="M53.8,166.9l1.4,1.1c-0.5,0.8-1.3,1.3-1.9,1.6c-0.7,0.2-1.5,0.2-2.4-0.1c-1.1-0.4-1.8-1.1-2.2-2.1     c-0.4-1-0.4-2.2,0-3.3c0.4-1.3,1.3-2.2,2.2-2.8c1-0.4,2-0.5,3.1-0.2c1,0.4,1.7,0.9,2.2,1.8c0.3,0.4,0.4,1.1,0.4,1.7l-1.8-0.2     c0.1-0.4-0.1-0.8-0.3-1.3c-0.2-0.4-0.5-0.5-1-0.7c-0.5-0.2-1.2-0.2-1.7,0.2c-0.5,0.4-1,1-1.3,1.9c-0.4,1-0.4,1.9-0.2,2.4     c0.2,0.6,0.6,1,1.3,1.2c0.4,0.2,0.9,0.2,1.3-0.1C53,167.7,53.4,167.4,53.8,166.9z"/>
			<g>
				<g>
					<polygon fill="#145093" points="59.7,168.2 59.7,169.6 61,169.9 61.4,172 63.3,172.3 61.6,163.3 59.8,162.9 59.7,163.1        59.7,166.1 60.3,165.1 60.8,168.4      "/>
					<polygon fill="#145093" points="59.7,166.1 59.7,163.1 54.8,170.7 56.6,171.1 57.7,169.3 59.7,169.6 59.7,168.2 58.5,167.9             "/>
				</g>
			</g>
			<g>
				<g>
					<path fill="#145093" d="M67.6,167.7l0.4,1.9c0.2,0.2,0.4,0.6,0.8,1.2l1.2,2l2,0.1l-0.9-1.7c-0.4-0.7-0.7-1.2-1-1.4       c-0.3-0.3-0.5-0.5-0.9-0.7c0.7-0.1,1.3-0.4,1.7-0.7c0.4-0.4,0.5-1,0.5-1.6c0.1-0.4-0.1-1-0.4-1.3c-0.2-0.4-0.5-0.7-0.9-0.8       c-0.4-0.2-1.1-0.4-1.9-0.4h-0.3l-0.3,1.4c0.4,0,0.8,0.1,0.9,0.1c0.4,0.1,0.8,0.4,0.9,0.5c0.2,0.2,0.3,0.4,0.2,0.7       c0,0.3-0.1,0.4-0.2,0.6c-0.2,0.2-0.4,0.4-0.5,0.4C68,167.8,68.2,167.8,67.6,167.7z"/>
					<path fill="#145093" d="M68.4,165.3l-0.2-1.3l-3.3-0.1l-0.4,8.5l1.7,0.1l0.1-3.5h0.4c0.4,0,0.4,0.1,0.8,0.2       c0.2,0.1,0.5,0.4,0.7,0.5c0.1,0,0.3,0.1,0.3,0.1l0.1-2c-0.2,0-0.8-0.1-0.9-0.1l-1.3-0.1l0.1-2.2h1.3       C68,165.2,68.3,165.4,68.4,165.3z"/>
				</g>
			</g>
			<g>
				<g>
					<polygon fill="#145093" points="75.9,168.9 75.9,170.4 77.8,170.3 78.7,172.1 80.5,172 76.4,163.8 75.9,163.9 75.9,166.5        77.1,168.9      "/>
					<polygon fill="#145093" points="75.9,166.5 75.9,163.9 74.6,164 72.1,172.8 73.8,172.6 74.3,170.6 75.9,170.4 75.9,168.9        74.7,169.1 75.6,165.9      "/>
				</g>
			</g>
			<path fill="#145093" d="M84.7,167.7l-0.4-1.4l3.6-0.8l0.7,3.2c-0.3,0.4-0.7,0.8-1.3,1.3c-0.6,0.4-1.3,0.7-2,0.8     c-0.9,0.2-1.7,0.2-2.4,0c-0.7-0.2-1.3-0.6-1.9-1.3c-0.4-0.6-0.8-1.3-1-2.2c-0.2-0.8-0.2-1.7,0.1-2.4c0.2-0.8,0.5-1.4,1.3-2     c0.4-0.4,1.1-0.7,1.9-0.8c1.1-0.3,1.9-0.2,2.6,0.1c0.7,0.4,1.3,0.8,1.6,1.6l-1.6,0.7c-0.2-0.4-0.4-0.6-0.9-0.8     c-0.4-0.2-0.8-0.2-1.3-0.1c-0.7,0.2-1.3,0.5-1.6,1.1c-0.4,0.6-0.4,1.3-0.2,2.2c0.2,1,0.6,1.7,1.2,2.2c0.5,0.4,1.3,0.5,2,0.4     c0.4-0.1,0.7-0.2,1-0.4c0.4-0.2,0.6-0.4,0.8-0.7l-0.3-1.1L84.7,167.7z"/>
			<path fill="#145093" d="M87.1,161.4l1.6-0.6l1.7,4.2c0.3,0.7,0.4,1.1,0.5,1.3c0.2,0.3,0.4,0.4,0.8,0.5c0.4,0.1,0.7,0.1,1.2-0.2     c0.4-0.2,0.8-0.4,1-0.7c0.2-0.3,0.2-0.5,0.1-0.8c-0.1-0.4-0.2-0.7-0.4-1.3l-1.8-4.4l1.6-0.6l1.7,4.1c0.4,1,0.6,1.6,0.7,2.1     s0.1,0.8-0.1,1.3c-0.2,0.4-0.4,0.7-0.7,1.1c-0.4,0.4-0.8,0.6-1.4,0.8c-0.8,0.4-1.3,0.4-1.9,0.4c-0.4,0-0.9-0.1-1.3-0.4     c-0.4-0.2-0.6-0.4-0.8-0.7c-0.4-0.4-0.6-1.1-1-2L87.1,161.4z"/>
			<g>
				<g>
					<path fill="#145093" d="M99.2,165.5L99.2,165.5L99.2,165.5z"/>
					<polygon fill="#145093" points="99.2,161.6 99.2,163.2 101.7,161.6 103.3,162.9 105,162 99.2,157.6 99.2,159.8 100.5,160.7             "/>
					<polygon fill="#145093" points="99.2,159.8 99.2,157.6 97.7,156.4 96.1,157.4 97.6,166.4 99.2,165.5 99.2,165.5 98.9,163.4        99.2,163.2 99.2,161.6 98.5,161.9 97.9,158.6      "/>
				</g>
			</g>
		</g>
		<g>
			<g>
				<g>
					<path fill="none" stroke="#145093" stroke-width="2.0514" d="M111.2,128c-1,0.1-1.8-1.3-2.7-1.3c-1.3-0.1-2.2,1.3-3.3,1.3       c-1.1-0.1-2.1-1.3-3.1-1.3c-1.3,0.1-2.2,1.3-3.2,1.3c-1.3-0.1-2.6-1.3-3.8-1.3c-1.3,0-2.2,1.3-3.4,1.3       c-1.3-0.1-2.5-1.3-3.6-1.3c-1.1,0.1-2.2,1.3-3.2,1.3c-1.3,0-2.5-1.3-3.6-1.3c-1.5,0-2.6,1.3-3.8,1.3c-1.2-0.1-2.4-1.3-3.5-1.3       c-1.3,0.1-2.2,1.3-3.2,1.3c-1.3,0-2.7-1.3-4-1.3s-2.5,1.3-3.8,1.3c-1.2,0.1-2.2-1.3-3.3-1.3c-1.3,0-2.2,1.3-3.2,1.3       c-1.1,0-2.2-1.3-3.3-1.3c-1.2,0-2.1,1.3-3.1,1.3c-1.3,0.1-2.6-1.3-3.8-1.3c-1.5,0.1-2.3,1.3-3.5,1.3c-1.3,0.1-2.2-1.2-3.3-1.3       c-1.3,0-2.4,1.3-3.7,1.2c-1.6,0.2-2.8-1.2-4-1.2c-0.9,0-1.3,0.8-2.1,1.3"/>
				</g>
			</g>
			<g>
				<g>
					<path fill="none" stroke="#145093" stroke-width="2.0514" d="M29,131.1c0.7-0.4,1.2-1.3,2.1-1.2c1.3,0,2.4,1.3,4,1.1       c1.3,0.2,2.4-1.2,3.7-1.1c1.3,0.1,2.1,1.3,3.3,1.3c1.3,0,2.2-1.3,3.5-1.3c1.3-0.1,2.5,1.3,3.8,1.2c1.1,0,2-1.3,3.1-1.3       c1.2,0,2.2,1.3,3.3,1.3c1.1-0.1,2-1.3,3.2-1.3c1.1-0.1,2.2,1.3,3.3,1.3c1.3-0.1,2.5-1.3,3.8-1.3s2.7,1.3,4,1.3       c1.1-0.1,2-1.3,3.2-1.3c1.1,0.1,2.4,1.3,3.5,1.3c1.3-0.1,2.3-1.3,3.8-1.3c1.2,0.1,2.4,1.3,3.6,1.3c1.1,0,2.2-1.3,3.2-1.3       c1.3,0.1,2.4,1.3,3.6,1.3c1.3,0,2.2-1.3,3.4-1.3c1.3,0,2.5,1.3,3.8,1.3c1.1-0.1,2-1.3,3.2-1.3c1.1,0,2.1,1.3,3.1,1.3       c1.2,0,2.2-1.3,3.3-1.3c0.9,0,1.8,1.3,2.7,1.3c0.8,0.1,1.2-0.8,1.8-1.3"/>
				</g>
			</g>
			<g>
				<g>
					<path fill="none" stroke="#145093" stroke-width="2.0514" d="M113.9,134.1c-1,0.4-1.7,1-2.8,1c-1,0.1-1.8-1.3-2.7-1.3       c-1.3-0.1-2.2,1.3-3.3,1.3c-1.1-0.1-2.1-1.3-3.1-1.3c-1.3,0.1-2.2,1.3-3.2,1.3c-1.3-0.1-2.6-1.3-3.8-1.3       c-1.3,0-2.2,1.3-3.4,1.3c-1.3-0.1-2.5-1.3-3.6-1.3c-1.1,0.1-2.2,1.3-3.2,1.3c-1.3,0-2.5-1.3-3.6-1.3c-1.5,0.1-2.6,1.3-3.8,1.3       c-1.2-0.1-2.4-1.3-3.5-1.3c-1.3,0.1-2.2,1.3-3.2,1.3c-1.3,0-2.7-1.3-4-1.3c-1.3-0.1-2.5,1.3-3.8,1.3c-1.2,0.1-2.2-1.3-3.3-1.2       c-1.3-0.1-2.2,1.2-3.2,1.3c-1.1,0-2.2-1.3-3.3-1.3s-2.1,1.3-3.1,1.3c-1.3,0.1-2.6-1.3-3.8-1.3c-1.5,0.1-2.3,1.3-3.5,1.3       c-1.3,0.1-2.2-1.1-3.3-1.2c-1.3-0.1-2.4,1.3-3.7,1.1c-1.6,0.2-2.8-1.2-4-1.2c-0.8,0.4-1.7,1.3-2.5,1.2       c-1.1-0.1-1.1-0.9-1.9-1.3"/>
				</g>
			</g>
		</g>
		<path fill="#FFFFFF" stroke="#FFFFFF" stroke-width="0.2205" d="M54.7,117.6h38.9l4.3,5.2H56.3C56.3,122.8,54.9,117.8,54.7,117.6z    "/>
		<g>
			<path fill="#009650" stroke="#4A6E6D" stroke-width="0.2205" d="M33.6,121.9c4.6-0.4,10.1-4.2,14.6-9.8c1.5-2.8,5-2.9,5.9,0     c2.2,6.6,5.7,10.8,11,11.6c-2.7-1.4-4.9-3.2-7-5.8c1.6-1.2,2.8-2.5,3.9-4.3c1.8-3.2,3.8-3.2,5.1,0c2.5,5.3,5.2,8.7,8.4,9.4     c-2.2-1.5-4-3.3-5.6-6c0.8-1,1.5-2.1,2.2-3.1c1.3-2.7,2.6-2.6,4,0c3.4,4.6,6.3,7.3,8.7,8.8c-1.8-1.6-3.3-3.3-4.5-5.6     c1-1,1.6-1.9,2.2-2.8c1.3-2.7,2.7-3,4.4,0c2.4,3.5,5.1,6.2,8.2,8.2c-2.2-2-4-4.1-5-6.2c0.5-0.4,0.9-0.6,1.2-1     c1.3-2.4,2.6-1.9,4.2,0c3.8,4.5,8.4,8.5,12.2,7.6l0.8,2.5L32.3,125L33.6,121.9z"/>
			<g>
				<g>
					<path fill="#009650" stroke="#FFFFFF" stroke-width="2.2146" d="M111.2,125.5c-1,0-1.8-1-2.7-1c-1.3-0.1-2.2,1-3.3,1       c-1.1-0.1-2.1-0.9-3.1-0.9c-1.3,0.1-2.2,1-3.2,1c-1.3-0.1-2.6-1-3.8-1c-1.3,0-2.2,1-3.4,1c-1.3-0.1-2.5-1-3.6-1.1       c-1.1,0.1-2.2,1-3.2,1.1c-1.3,0-2.5-1.1-3.6-1.1c-1.5,0-2.5,1.1-3.8,1.1c-1.2-0.1-2.4-1.1-3.4-1.2c-1.3,0.1-2.2,1.1-3.2,1.2       c-1.3,0-2.6-1.2-3.9-1.2s-2.6,1.1-3.8,1.1c-1.2,0-2.2-1.3-3.3-1.3c-1.3,0-2.2,1.1-3.2,1.2c-1.1-0.1-2.2-1.2-3.3-1.2       c-1.2,0-2.1,1.1-3.1,1.1c-1.3,0.1-2.6-1.2-3.8-1.1c-1.5,0.1-2.3,1.1-3.5,1.1c-1.3,0.1-2.2-1-3.3-1.1c-1.3,0-2.4,1.3-3.6,1.1       c-1.7,0.1-2.9-1.1-4-1.1"/>
				</g>
			</g>
		</g>
		<path fill="#EA212E" stroke="#EA212E" stroke-width="0.2205" d="M71.5,106H70c-0.1-1-0.4-1.7-0.9-2.2c-2-1.3-2-3.8-0.6-5.4    c0.5-0.4,1.6-1.5,0.6-1.7c-1.1-0.2-1-1.3,0.3-1.5c3.5-0.4,4.7,2.2,4.9,7.5C72.4,102.4,71.6,103.8,71.5,106z"/>
		<polygon fill="none" stroke="#FAB960" stroke-width="5.1696" points="24.2,138.6 70.9,56.6 117.4,138.6   "/>
	</g>
	<g>
		<path fill="#115092" d="M17.2,58.4l2.6-2.8l9.2,8.7l-1.7,1.8l-6.3-5.8c-0.2-0.2-0.4-0.4-0.7-0.7c-0.4-0.3-0.5-0.5-0.7-0.7l6.1,9.1    L24,69.9l-9.4-5.6c0.2,0.2,0.4,0.4,0.8,0.7c0.4,0.3,0.6,0.5,0.8,0.7l6.3,5.8l-1.7,1.8l-9.3-8.6l2.7-2.9l8.9,5.1L17.2,58.4z"/>
		<path fill="#115092" d="M34.6,60.4L32.4,62l-7.5-10.1l2.2-1.6L34.6,60.4z"/>
		<path fill="#115092" d="M41.9,46.2c-0.5-0.7-1.3-1-2.2-1c-0.4,0-1,0.2-1.4,0.4c-0.9,0.4-1.5,1.2-1.8,2.2c-0.3,1,0,2.2,0.6,3.5    c0.7,1.4,1.5,2.2,2.4,2.5s1.8,0.2,2.6-0.2c0.8-0.4,1.3-1,1.6-1.7c0.3-0.7,0.3-1.4,0.1-2.3l-2.7,1.3L40.2,49l4.7-2.3l3.1,6.1    l-1.6,0.8l-1-1.3c-0.2,0.8-0.4,1.3-0.7,1.8c-0.4,0.7-1.2,1.3-2.1,1.7c-1.5,0.7-3.1,0.8-4.4,0.3c-1.5-0.5-2.8-1.8-3.6-3.5    c-0.9-1.9-1.2-3.5-0.6-5.1c0.5-1.6,1.5-2.9,3.2-3.6c1.4-0.7,2.8-0.9,4-0.6c1.3,0.3,2.2,1,2.9,2.1L41.9,46.2z"/>
		<path fill="#115092" d="M57.5,37.7c0.5,0.1,1,0.3,1.3,0.6c0.4,0.3,0.6,0.5,0.9,0.9c0.3,0.4,0.4,0.8,0.5,1.3    c0.1,0.6,0.1,1.3-0.1,1.9c-0.2,0.6-0.5,1.2-1.3,1.5c0.6,0.1,1.1,0.4,1.4,0.7s0.6,1,0.8,1.9l0.2,0.8c0.1,0.5,0.3,1,0.4,1.2    c0.2,0.3,0.4,0.5,0.6,0.6l0.1,0.4l-2.9,0.6c-0.2-0.3-0.3-0.4-0.4-0.6c-0.2-0.4-0.3-0.7-0.4-1.1l-0.3-1.3c-0.2-0.8-0.4-1.3-0.8-1.5    c-0.4-0.2-0.8-0.3-1.6-0.1L53.4,46l1.1,4.8l-2.6,0.5L49.4,39l5.9-1.3C56.4,37.7,57.1,37.6,57.5,37.7z M52.6,40.7l0.7,3.3l2.8-0.6    c0.5-0.1,1-0.3,1.3-0.4c0.4-0.4,0.6-0.9,0.4-1.6c-0.2-0.7-0.5-1.3-1.1-1.3C56.4,40,56,40,55.4,40.2L52.6,40.7z"/>
		<path fill="#115092" d="M70.5,36.3l3.1,0.1l4.1,12.9l-2.9-0.1L74,46.4l-4.7-0.1l-1,2.6l-2.8-0.1L70.5,36.3z M70.1,44.1l3.2,0.1    l-1.4-5L70.1,44.1z"/>
		<path fill="#115092" d="M84.8,38.8c1.3-0.8,2.7-1,4.1-0.6c2.1,0.5,3.3,1.6,4,3.1c0.4,0.9,0.4,1.7,0.3,2.5l-2.6-0.6    c0-0.6-0.1-1.2-0.3-1.5c-0.4-0.6-1-1.1-1.9-1.3c-0.9-0.3-1.8,0-2.5,0.6s-1.3,1.6-1.6,3.1c-0.4,1.4-0.4,2.5,0.1,3.2    c0.4,0.8,1,1.3,1.9,1.6c0.9,0.2,1.6,0.1,2.2-0.4c0.4-0.3,0.6-0.7,1-1.3l2.6,0.6c-0.5,1.3-1.4,2.2-2.5,2.9    c-1.2,0.6-2.4,0.7-3.8,0.4c-1.8-0.4-3.1-1.3-3.7-2.8c-0.7-1.4-0.8-3.1-0.4-5C82.4,41.4,83.4,39.7,84.8,38.8z"/>
		<path fill="#115092" d="M97.1,54.9l-2.4-1.1l5-11.6l2.4,1.1L97.1,54.9z"/>
		<path fill="#115092" d="M109.9,61.1c-1.3,0.3-2.8-0.1-4.2-1.1c-1.5-1-2.4-2.2-2.7-3.5c-0.4-1.7,0.1-3.5,1.3-5.4    c1.3-2,2.9-3.1,4.5-3.2c1.3-0.3,2.8,0.1,4.2,1.1c1.5,1,2.4,2.2,2.7,3.5c0.4,1.7,0,3.4-1.3,5.4C113,59.8,111.6,60.9,109.9,61.1z     M109.5,58.6c1-0.3,1.8-1.1,2.6-2.2c0.8-1.2,1.2-2.3,1.1-3.2c-0.1-1-0.5-1.8-1.4-2.4c-0.9-0.6-1.8-0.7-2.8-0.4    c-1,0.3-1.9,1.1-2.7,2.2c-0.8,1.2-1.2,2.3-1.1,3.2c0.1,1,0.5,1.8,1.4,2.4C107.7,58.8,108.6,58.9,109.5,58.6z M117.6,47.5l-3.6,0.7    l-1.5-1l2.9-1.3L117.6,47.5z"/>
		<path fill="#115092" d="M122.9,57l1.9,2.1l-3.1,9.7l6.5-5.9l1.7,1.8l-9.3,8.6l-1.8-2l3.1-9.9l-6.6,6.1l-1.7-1.8L122.9,57z"/>
	</g>
	<g>
		<g>
			<path fill="#FAB960" d="M11.4,45.5c0.4-0.4,0.7-0.5,1.2-1c1.3,1.5,2.1,2.2,3.4,3.7c-0.3,0.3-0.4,0.4-0.8,0.6     c-1-1-1.4-1.5-2.3-2.6c-0.1-0.1-0.2-0.2-0.3-0.3c-0.1-0.1-0.2-0.3-0.3-0.3c0.9,1.5,1.3,2.2,2.2,3.7c-0.4,0.3-0.4,0.4-0.8,0.6     c-1.5-1.1-2.2-1.5-3.6-2.6c0.1,0.1,0.2,0.2,0.3,0.3c0.1,0.1,0.2,0.3,0.3,0.3c0.9,1,1.4,1.5,2.3,2.6c-0.3,0.3-0.4,0.4-0.8,0.6     c-1.4-1.5-2.1-2.2-3.4-3.8c0.4-0.4,0.7-0.5,1.3-1c1.3,1,2.1,1.4,3.4,2.4C12.7,47.6,12.2,46.9,11.4,45.5z"/>
			<path fill="#FAB960" d="M18.5,46.7c-0.4,0.3-0.5,0.4-0.9,0.6c-1.3-1.6-2-2.3-3.2-3.9c0.4-0.3,0.5-0.4,0.9-0.6     C16.5,44.3,17.1,45.1,18.5,46.7z"/>
			<path fill="#FAB960" d="M17,41.5c0.4-0.3,0.5-0.4,1-0.6c1.5,0.7,2.2,1.1,3.7,1.8c-0.8-1.2-1.3-1.7-2.1-2.9     c0.4-0.2,0.5-0.4,0.8-0.5c1.2,1.6,1.8,2.4,3,4c-0.4,0.3-0.5,0.4-0.9,0.5c-1.5-0.7-2.3-1.1-3.8-1.8c0.8,1.2,1.3,1.8,2.1,3     c-0.4,0.2-0.5,0.4-0.8,0.5C18.8,44,18.3,43.2,17,41.5z"/>
			<path fill="#FAB960" d="M25.9,42.1c-0.4,0.2-0.5,0.4-0.9,0.5c-1.1-1.7-1.6-2.5-2.7-4.1c0.4-0.2,0.5-0.3,0.9-0.5     C24.3,39.5,24.8,40.4,25.9,42.1z"/>
			<path fill="#FAB960" d="M27.4,39.4c0.2,0.2,0.3,0.3,0.4,0.4c0.3,0.1,0.5,0.1,1-0.2c0.3-0.1,0.4-0.3,0.5-0.4     c0.2-0.3,0.3-0.4,0.1-0.7c-0.1-0.2-0.2-0.2-0.4-0.3c-0.2,0-0.4,0-0.7,0.1c-0.2,0.1-0.4,0.1-0.5,0.2c-0.5,0.2-0.9,0.2-1.2,0.2     c-0.4-0.1-0.7-0.3-1-0.7c-0.2-0.4-0.3-0.8-0.1-1.2c0.2-0.4,0.5-0.7,1.1-1.1c0.4-0.3,1-0.4,1.4-0.3c0.4,0.1,0.8,0.4,1.2,0.8     c-0.4,0.2-0.5,0.3-0.9,0.4c-0.2-0.3-0.4-0.4-0.7-0.4c-0.2,0-0.4,0.1-0.6,0.2s-0.4,0.3-0.5,0.4c-0.1,0.1-0.1,0.4,0,0.5     c0.1,0.2,0.3,0.3,0.4,0.3c0.1,0,0.4,0,0.7-0.1c0.4-0.1,0.5-0.2,0.9-0.3c0.4-0.1,0.7-0.1,1-0.1c0.4,0.1,0.7,0.3,0.9,0.7     c0.3,0.4,0.3,0.8,0.1,1.3c-0.2,0.4-0.5,0.8-1.2,1.1c-0.6,0.3-1.2,0.4-1.6,0.4c-0.4-0.1-0.9-0.4-1.1-0.8     C26.9,39.7,27.1,39.6,27.4,39.4z"/>
			<path fill="#FAB960" d="M33.6,32.7c0.2,0.4,0.3,0.4,0.4,0.8c-0.5,0.3-0.8,0.4-1.3,0.6c0.7,1.4,1.1,2.2,1.8,3.6     c-0.4,0.2-0.6,0.3-1,0.4c-0.7-1.4-1.1-2.2-1.8-3.6c-0.5,0.3-0.8,0.4-1.4,0.6c-0.2-0.4-0.3-0.4-0.4-0.8     C31.4,33.7,32.2,33.4,33.6,32.7z"/>
			<path fill="#FAB960" d="M39.1,31.6c-1,0.4-1.5,0.5-2.5,0.9c0.2,0.4,0.3,0.6,0.4,1c0.9-0.4,1.3-0.5,2.3-0.9     c0.1,0.4,0.2,0.4,0.4,0.8c-0.9,0.4-1.3,0.5-2.3,0.9c0.2,0.4,0.3,0.7,0.4,1.2c1.1-0.4,1.6-0.6,2.6-1c0.2,0.4,0.2,0.5,0.4,0.8     c-1.4,0.5-2.2,0.8-3.5,1.3c-0.7-1.9-1.1-2.8-1.8-4.5c1.3-0.5,2.1-0.8,3.3-1.3C38.9,31,39,31.2,39.1,31.6z"/>
			<path fill="#FAB960" d="M44,29.2c0.2,0,0.4,0.1,0.5,0.2c0.2,0.1,0.3,0.2,0.4,0.4c0.1,0.1,0.2,0.3,0.3,0.4c0.1,0.2,0.1,0.4,0,0.7     c-0.1,0.3-0.4,0.6-0.4,0.6s0.4,0.1,0.6,0.3c0.2,0.1,0.3,0.4,0.4,0.7c0,0.1,0.1,0.2,0.1,0.4c0.1,0.2,0.1,0.4,0.2,0.4     c0.1,0.1,0.2,0.2,0.3,0.2c0,0.1,0,0.1,0,0.1c-0.4,0.2-0.6,0.2-1.1,0.4c-0.1-0.1-0.1-0.2-0.2-0.3c-0.1-0.1-0.1-0.3-0.2-0.4     c-0.1-0.2-0.1-0.3-0.2-0.4c-0.1-0.3-0.2-0.4-0.4-0.5c-0.1-0.1-0.4-0.1-0.6,0c-0.4,0.1-0.6,0.2-1,0.3c0.3,0.7,0.4,1.1,0.6,1.9     c-0.4,0.1-0.6,0.2-1,0.3c-0.6-1.9-0.9-2.9-1.5-4.7c0.9-0.3,1.3-0.4,2.3-0.7C43.5,29.2,43.8,29.2,44,29.2z M42,30.7     c0.2,0.5,0.3,0.7,0.4,1.3c0.4-0.1,0.6-0.2,1.1-0.4c0.2-0.1,0.4-0.2,0.4-0.2c0.2-0.2,0.2-0.4,0.1-0.6c-0.1-0.3-0.3-0.4-0.4-0.4     c-0.1,0-0.3,0-0.4,0.1C42.8,30.4,42.4,30.5,42,30.7z"/>
			<path fill="#FAB960" d="M48.9,32.8c-0.4,0.1-0.6,0.2-1,0.3c-0.5-1.9-0.7-2.9-1.3-4.7c0.4-0.1,0.6-0.2,1-0.3     C48.2,30.1,48.5,30.9,48.9,32.8z"/>
			<path fill="#FAB960" d="M54.4,31.2c-0.3,0.4-0.8,0.7-1.5,0.9c-0.7,0.2-1.3,0-1.7-0.3c-0.5-0.4-1-1-1.2-1.9     c-0.2-0.9,0-1.6,0.4-2.2c0.3-0.4,0.8-0.7,1.5-0.9c0.7-0.2,1.3,0,1.7,0.3c0.5,0.4,1,1,1.2,1.9C54.8,30,54.7,30.7,54.4,31.2z      M53.7,30.7c0.2-0.4,0.2-0.8,0.1-1.3c-0.1-0.5-0.4-0.9-0.6-1.2c-0.3-0.3-0.6-0.4-1.1-0.3c-0.4,0.1-0.7,0.3-0.9,0.6     c-0.2,0.4-0.2,0.8-0.1,1.3c0.1,0.5,0.4,0.9,0.6,1.2s0.6,0.4,1.1,0.3C53.1,31.2,53.5,30.9,53.7,30.7z"/>
			<path fill="#FAB960" d="M61.9,25.8c0.4,0.1,0.6,0.3,0.9,0.5c0.2,0.3,0.4,0.4,0.4,0.7c0.1,0.3,0.2,0.5,0.2,0.8     c0.1,0.6,0,1.3-0.2,1.7c-0.3,0.6-0.8,1-1.6,1.1c-0.9,0.1-1.3,0.1-2.2,0.2c-0.2-2-0.3-3-0.4-4.8c0.8-0.1,1.3-0.1,2.2-0.2     C61.5,25.7,61.7,25.7,61.9,25.8z M60.2,26.7c0.1,1.3,0.2,1.9,0.3,3.2c0.4,0,0.5-0.1,1-0.1c0.4-0.1,0.8-0.4,1-0.8     c0.1-0.3,0.1-0.6,0.1-1c-0.1-0.5-0.2-0.9-0.4-1.2c-0.2-0.3-0.5-0.4-1-0.3C60.7,26.6,60.6,26.7,60.2,26.7z"/>
			<path fill="#FAB960" d="M68.9,26.2c-1.1,0-1.6,0.1-2.6,0.1c0,0.4,0,0.6,0,1.1c1,0,1.4-0.1,2.4-0.1c0,0.4,0,0.5,0,0.9     c-1,0-1.4,0-2.4,0c0,0.5,0,0.7,0,1.3c1.1,0,1.6-0.1,2.8-0.1c0,0.4,0,0.5,0,0.9c-1.5,0.1-2.2,0.1-3.7,0.1c-0.1-2-0.1-3-0.2-4.8     c1.4,0,2.2-0.1,3.5-0.1C68.9,25.6,68.9,25.8,68.9,26.2z"/>
			<path fill="#FAB960" d="M77.2,27.2c-0.1-0.4-0.3-0.6-0.5-0.7c-0.2-0.1-0.4-0.1-0.5-0.2c-0.4,0-0.7,0.1-1,0.4     c-0.3,0.3-0.4,0.7-0.4,1.3s0.1,1.1,0.4,1.3c0.3,0.3,0.5,0.4,0.9,0.4s0.6-0.1,0.9-0.3c0.3-0.2,0.4-0.4,0.4-0.7     c-0.4,0-0.7,0-1.2-0.1c0-0.4,0-0.4,0.1-0.8c0.8,0.1,1.3,0.1,2.1,0.1c-0.1,1.1-0.1,1.6-0.2,2.6c-0.3,0-0.4,0-0.7,0     c0-0.3,0-0.4-0.1-0.6c-0.2,0.2-0.4,0.4-0.5,0.4c-0.3,0.2-0.6,0.2-1.1,0.2c-0.6,0-1.2-0.3-1.6-0.8c-0.4-0.4-0.6-1.1-0.5-1.9     c0.1-0.8,0.4-1.4,0.8-1.9c0.4-0.4,1.1-0.6,1.8-0.6c0.6,0,1.1,0.3,1.5,0.5c0.4,0.4,0.5,0.7,0.6,1.3C77.7,27.2,77.6,27.2,77.2,27.2     z"/>
			<path fill="#FAB960" d="M83.7,30.8c-0.4,0.4-1,0.4-1.7,0.4c-0.7-0.1-1.3-0.4-1.5-0.8c-0.4-0.5-0.6-1.3-0.4-2.2     c0.1-0.9,0.5-1.5,1.1-1.9c0.4-0.3,1-0.4,1.7-0.4c0.7,0.1,1.2,0.4,1.5,0.8c0.4,0.5,0.6,1.3,0.4,2.2C84.6,29.9,84.2,30.5,83.7,30.8     z M83.1,30.1c0.3-0.3,0.4-0.7,0.5-1.3c0.1-0.5,0-1-0.2-1.3c-0.2-0.3-0.5-0.5-0.8-0.5c-0.4-0.1-0.7,0.1-1.1,0.4     c-0.3,0.3-0.4,0.6-0.5,1.3c-0.1,0.5,0,1,0.2,1.3c0.2,0.4,0.5,0.5,0.9,0.5C82.5,30.5,82.9,30.4,83.1,30.1z"/>
			<path fill="#FAB960" d="M90.5,28.1c0.1,0.3,0.1,0.5,0.1,0.8c-0.1,0.3-0.2,0.5-0.4,0.6c-0.1,0.1-0.4,0.2-0.4,0.2s0.4,0.4,0.4,0.5     c0.1,0.2,0.1,0.4,0.1,0.7c-0.1,0.3-0.2,0.5-0.4,0.7c-0.1,0.1-0.3,0.3-0.4,0.3c-0.2,0.1-0.4,0.1-0.6,0.1c-0.2,0-0.4,0-0.7-0.1     c-0.9-0.2-1.3-0.3-2.2-0.4c0.4-1.9,0.6-2.9,1.1-4.8c0.9,0.2,1.4,0.3,2.3,0.4C89.9,27.4,90.3,27.7,90.5,28.1z M87.3,29.9     c-0.1,0.5-0.2,0.8-0.3,1.3c0.4,0.1,0.7,0.2,1.2,0.3c0.2,0,0.4,0.1,0.5,0c0.3-0.1,0.4-0.3,0.4-0.5c0.1-0.3,0-0.4-0.2-0.5     c-0.1-0.1-0.3-0.2-0.4-0.2C88.1,30,87.8,30,87.3,29.9z M87.7,27.9c-0.1,0.4-0.2,0.6-0.3,1.1c0.4,0.1,0.7,0.2,1.2,0.3     c0.2,0,0.4,0,0.5,0c0.2-0.1,0.3-0.2,0.3-0.4c0.1-0.2,0-0.4-0.2-0.5c-0.1-0.1-0.4-0.2-0.5-0.2C88.3,28,88.2,28,87.7,27.9z"/>
			<path fill="#FAB960" d="M96.3,30c-1-0.3-1.5-0.4-2.6-0.7c-0.1,0.4-0.2,0.6-0.3,1c0.9,0.3,1.4,0.4,2.3,0.6     c-0.1,0.4-0.2,0.5-0.3,0.8c-1-0.3-1.4-0.4-2.3-0.6c-0.2,0.4-0.2,0.7-0.4,1.3c1.1,0.3,1.6,0.4,2.7,0.7c-0.1,0.4-0.2,0.5-0.3,0.9     c-1.5-0.4-2.2-0.6-3.6-1c0.5-1.9,0.8-2.9,1.3-4.7c1.4,0.4,2.2,0.5,3.4,1C96.5,29.4,96.4,29.6,96.3,30z"/>
			<path fill="#FAB960" d="M101.6,30.8c0.2,0.1,0.3,0.3,0.4,0.4c0.1,0.2,0.1,0.3,0.1,0.4c0,0.1,0,0.4-0.1,0.5     c-0.1,0.2-0.2,0.4-0.4,0.6c-0.2,0.2-0.7,0.3-0.7,0.3s0.3,0.4,0.4,0.5c0,0.2,0,0.4-0.1,0.8c-0.1,0.1-0.1,0.2-0.1,0.3     C101,34.8,101,35,101,35c0,0.1,0,0.3,0.1,0.4c0,0.1,0,0.1,0,0.1c-0.4-0.2-0.6-0.2-1.1-0.4c0-0.1,0-0.2,0-0.3     c0-0.2,0.1-0.3,0.1-0.4c0.1-0.2,0.1-0.3,0.2-0.4c0.1-0.3,0.1-0.5,0.1-0.6c-0.1-0.1-0.3-0.3-0.5-0.4c-0.4-0.1-0.6-0.2-1-0.4     c-0.3,0.7-0.4,1.1-0.6,1.8c-0.4-0.1-0.6-0.2-1-0.4c0.7-1.9,1-2.8,1.7-4.6c0.9,0.3,1.3,0.4,2.2,0.8     C101.2,30.7,101.5,30.8,101.6,30.8z M99.4,30.8c-0.2,0.5-0.3,0.7-0.4,1.3c0.4,0.2,0.6,0.2,1.1,0.4c0.2,0.1,0.4,0.1,0.5,0.1     c0.1,0,0.4-0.2,0.4-0.4c0.1-0.3,0.1-0.5-0.1-0.6c-0.1-0.1-0.3-0.2-0.4-0.3C99.9,31.1,99.8,31,99.4,30.8z"/>
			<path fill="#FAB960" d="M104.5,31.8c0.4,0.2,0.6,0.3,1,0.4c0.2,1.6,0.3,2.3,0.4,3.9c0.5-1.3,0.8-1.9,1.4-3.1     c0.4,0.2,0.5,0.2,0.9,0.4c-0.8,1.8-1.2,2.7-2,4.5c-0.4-0.2-0.6-0.3-1-0.4c-0.2-1.6-0.3-2.4-0.4-4c-0.5,1.3-0.9,2-1.4,3.2     c-0.4-0.2-0.5-0.3-0.9-0.4C103.3,34.5,103.7,33.6,104.5,31.8z"/>
			<path fill="#FAB960" d="M111.6,34.9c0.4,0.2,0.6,0.4,1.1,0.5c-0.3,2.1-0.4,3.1-0.7,5.1c-0.4-0.2-0.6-0.3-1.1-0.5     c0.1-0.4,0.1-0.6,0.2-1.1c-0.7-0.4-1-0.4-1.7-0.8c-0.4,0.3-0.4,0.4-0.8,0.7c-0.4-0.2-0.6-0.3-1-0.5     C109.2,37.1,110,36.4,111.6,34.9z M110.1,37.6c0.4,0.3,0.7,0.4,1.2,0.5c0.2-0.8,0.2-1.2,0.4-2C111,36.8,110.6,37,110.1,37.6z"/>
			<path fill="#FAB960" d="M116,37.8c0.5-0.2,1.2-0.1,1.7,0.3c0.7,0.4,1.2,1,1.2,1.6c0,0.4,0,0.7-0.2,1c-0.4-0.2-0.5-0.3-0.9-0.5     c0.1-0.3,0.1-0.4,0.1-0.6c-0.1-0.3-0.3-0.5-0.5-0.7c-0.4-0.2-0.6-0.2-1-0.1c-0.4,0.2-0.7,0.4-1,0.9c-0.3,0.4-0.4,0.9-0.4,1.3     c0.1,0.4,0.3,0.6,0.5,0.8c0.4,0.2,0.6,0.2,0.9,0.1c0.2-0.1,0.4-0.2,0.5-0.4c0.4,0.2,0.5,0.3,0.9,0.5c-0.4,0.4-0.8,0.7-1.3,0.8     c-0.5,0.1-1,0-1.5-0.3c-0.6-0.4-1-0.8-1.1-1.4c-0.1-0.6,0.1-1.3,0.5-1.9C114.7,38.4,115.4,37.9,116,37.8z"/>
			<path fill="#FAB960" d="M119.2,44.8c-0.4-0.3-0.5-0.4-0.9-0.5c1.2-1.6,1.8-2.4,3-4c0.4,0.3,0.5,0.4,0.9,0.5     C121,42.4,120.3,43.2,119.2,44.8z"/>
			<path fill="#FAB960" d="M124.2,47.7c-0.5,0.1-1.2-0.1-1.7-0.5c-0.6-0.4-0.9-0.9-1-1.4c-0.1-0.6,0.1-1.3,0.7-2.1     c0.6-0.7,1.3-1.1,2-1.2c0.5-0.1,1.2,0.1,1.7,0.5c0.6,0.4,0.9,0.9,1,1.4c0.1,0.6-0.1,1.3-0.7,2.1     C125.5,47.3,124.9,47.6,124.2,47.7z M124.2,46.7c0.4-0.1,0.8-0.4,1.2-0.8c0.4-0.4,0.5-0.9,0.5-1.3c0-0.4-0.2-0.7-0.5-1     c-0.4-0.3-0.7-0.4-1.1-0.2c-0.4,0.1-0.8,0.4-1.2,0.8s-0.5,0.9-0.5,1.3c0,0.4,0.2,0.7,0.5,1C123.4,46.7,123.7,46.8,124.2,46.7z      M127.7,42.7c-0.6,0.1-0.9,0.1-1.5,0.2c-0.3-0.2-0.4-0.3-0.5-0.4c0.4-0.2,0.7-0.3,1.2-0.4C127.1,42.3,127.3,42.4,127.7,42.7z"/>
			<path fill="#FAB960" d="M129.3,45.8c0.4,0.3,0.5,0.4,0.9,0.7c-0.4,1.5-0.5,2.3-0.9,3.8c1-1.1,1.5-1.5,2.5-2.6     c0.3,0.3,0.4,0.4,0.8,0.6c-1.4,1.5-2.2,2.2-3.5,3.7c-0.4-0.3-0.5-0.4-0.8-0.7c0.4-1.6,0.5-2.4,0.9-3.9c-1,1.1-1.5,1.6-2.5,2.6     c-0.3-0.3-0.4-0.4-0.8-0.6C127.2,48.1,128,47.3,129.3,45.8z"/>
		</g>
	</g>
</g>
</svg>