<?xml version="1.0" encoding="UTF-8"?>
<!-- Generator: Adobe Illustrator 17.1.0, SVG Export Plug-In . SVG Version: 6.00 Build 0)  -->
<!DOCTYPE svg PUBLIC "-//W3C//DTD SVG 1.1//EN" "http://www.w3.org/Graphics/SVG/1.1/DTD/svg11.dtd">
<svg version="1.1" id="Capa_1" xmlns="http://www.w3.org/2000/svg" xmlns:xlink="http://www.w3.org/1999/xlink" x="0px" y="0px" viewBox="0 0 143.9 185.7" enable-background="new 0 0 143.9 185.7" xml:space="preserve">
<g>
	<g>
		<path fill="#FFFFFF" stroke="#128858" stroke-width="7.3844" d="M72,5C51.6,23.3,28.1,26.4,3.7,26.5v88.4    c6.4,89.5,128.8,89.5,136.5,0l-0.1-88.4C115.5,26.4,91.5,23.9,72,5z"/>
		<path fill="none" stroke="#145093" stroke-width="3.6916" d="M71.6,65.3c26.8,0,48.7,22,48.7,48.9s-21.9,48.9-48.7,48.9    s-48.7-22-48.7-48.9C22.9,87.4,44.8,65.3,71.6,65.3z"/>
		<path fill="#145093" stroke="#145093" stroke-width="3.6916" d="M25.7,98.2h92c-8.8-21.6-24.8-31.9-46.7-32.8    C48.6,66.5,34,78,25.7,98.2z"/>
		<path fill="#145093" stroke="#145093" stroke-width="3.6916" d="M25.6,129.9h92.3c-7.6,20.2-23,31.9-46,33.3    C48.4,162.8,32.2,148.4,25.6,129.9z"/>
		<polygon fill="#FFFFFF" stroke="#FFFFFF" stroke-width="0.2205" points="47.4,101 72,59.1 96.2,101   "/>
		<g>
			<g>
				<polygon fill="#00BBEE" stroke="#00BBEE" stroke-width="0.2205" points="67.9,107.2 69.5,108.4 67.2,115.2 62.3,117.9       58.9,117.9     "/>
				<polygon fill="#00BBEE" stroke="#00BBEE" stroke-width="0.2205" points="66.1,104.1 67,105.6 54.5,116.3 45.6,117.9 45.5,113           "/>
				<polygon fill="#00BBEE" stroke="#00BBEE" stroke-width="0.2205" points="47.1,106.4 65.3,102.8 65.3,101.6 50.2,100.4     "/>
				<polygon fill="#00BBEE" stroke="#00BBEE" stroke-width="0.2205" points="53.6,97.6 65.8,100.1 66.2,99 56.7,94.4     "/>
				<path fill="#00BBEE" stroke="#00BBEE" stroke-width="0.2205" d="M54.4,88.4l12.5,9.8l1.3-1.2L57.8,83.9      C57.8,83.9,54.3,88.5,54.4,88.4z"/>
				<polygon fill="#00BBEE" stroke="#00BBEE" stroke-width="0.2205" points="68.9,96.5 70.4,95.9 64.2,73.9 60.2,79.9     "/>
			</g>
			<g>
				<polygon fill="#00BBEE" stroke="#00BBEE" stroke-width="0.2205" points="75.9,107.2 74.3,108.4 77.2,117.2 81.5,117.9 85,117.9           "/>
				<polygon fill="#00BBEE" stroke="#00BBEE" stroke-width="0.2205" points="77.8,104.1 76.8,105.6 91,117.6 98.2,117.9 98.4,113           "/>
				<polygon fill="#00BBEE" stroke="#00BBEE" stroke-width="0.2205" points="96.6,106.4 78.4,102.8 78.4,101.6 93.4,100.4     "/>
				<polygon fill="#00BBEE" stroke="#00BBEE" stroke-width="0.2205" points="90.2,97.6 78,100.1 77.6,99 87.1,94.4     "/>
				<path fill="#00BBEE" stroke="#00BBEE" stroke-width="0.2205" d="M89.3,88.4l-12.5,9.8L75.5,97L86,83.9      C85.9,83.9,89.5,88.5,89.3,88.4z"/>
				<polygon fill="#00BBEE" stroke="#00BBEE" stroke-width="0.2205" points="74.6,96.5 73.4,95.9 79.7,73.9 83.6,79.9     "/>
			</g>
			<g>
				<polygon fill="#00BBEE" stroke="#00BBEE" stroke-width="0.2205" points="70.9,108.9 72.6,109 73.8,117.9 69.6,117.9     "/>
				<polygon fill="#00BBEE" stroke="#00BBEE" stroke-width="0.2205" points="68.7,64.7 71.3,95.8 72.4,95.8 74.9,64.6 72,58.1           "/>
			</g>
		</g>
		<path fill="none" stroke="#145093" stroke-width="3.3222" d="M100.5,119.5l-57.8,0.1c-0.3-1.5-0.4-3.1-0.4-4.8    c0-16.3,13.3-29.4,29.4-29.4s29.3,13.2,29.3,29.4C101,116.8,100.9,117.6,100.5,119.5z"/>
		<path fill="none" stroke="#EA212E" stroke-width="3.3222" d="M97,119.4l-50.5-0.1c-0.1-0.9-0.3-3.7-0.3-4.5    c0-14.2,11.6-25.6,25.6-25.6s25.6,11.5,25.6,25.6C97.2,115.7,97,118.5,97,119.4z"/>
		<path fill="none" stroke="#009650" stroke-width="3.3222" d="M98.9,119.1H44.3c-0.1-1-0.3-3.2-0.3-4.2c0-15.2,12.4-27.5,27.5-27.5    s27.5,12.4,27.5,27.5C99.2,116.1,99.1,118,98.9,119.1z"/>
		<polygon fill="#FFFFFF" stroke="#FFFFFF" stroke-width="0.2205" points="38.8,117.6 26.2,139.9 118.6,139.9 106.3,117.6   "/>
		<g>
			<g>
				<g>
					<line fill="none" stroke="#145093" stroke-width="2.0514" x1="34.7" y1="123.2" x2="108.9" y2="123.1"/>
				</g>
			</g>
			<g>
				<g>
					<line fill="none" stroke="#145093" stroke-width="2.0514" x1="36.2" y1="120.7" x2="108" y2="120.7"/>
				</g>
			</g>
			<g>
				<g>
					<line fill="none" stroke="#145093" stroke-width="2.0514" x1="37.3" y1="118" x2="106.5" y2="118"/>
				</g>
			</g>
		</g>
		<path fill="#FFFFFF" stroke="#FFFFFF" stroke-width="0.2205" d="M71.8,94.9c3.9,0,7.1,3.1,7.1,7.1c0,4-3.2,7.1-7.1,7.1    c-4,0-7.1-3.1-7.1-7.1C64.7,98,68,94.9,71.8,94.9z"/>
		<g>
			<polygon fill="#145093" points="37.5,164.9 42,157.4 43.5,158.3 43.5,165.1 46.6,160.2 48,160.9 43.4,168.5 42,167.5 41.8,160.8      39.1,165.7    "/>
			<polygon fill="#145093" points="45.2,169.3 48.7,161.2 50.2,162.1 46.7,169.9    "/>
			<path fill="#145093" d="M54.5,169.5l1.4,1.1c-0.5,0.8-1.3,1.3-1.9,1.6c-0.7,0.2-1.5,0.2-2.4-0.1c-1.1-0.4-1.8-1.1-2.2-2.1     c-0.4-1-0.4-2.2,0-3.3c0.4-1.3,1.3-2.2,2.2-2.8c1-0.4,2-0.5,3.1-0.2c1,0.4,1.7,0.9,2.2,1.8c0.3,0.4,0.4,1.1,0.4,1.7l-1.8-0.2     c0.1-0.4-0.1-0.8-0.3-1.3c-0.2-0.4-0.5-0.5-1-0.7s-1.2-0.2-1.7,0.2c-0.5,0.4-1,1-1.3,1.9c-0.4,1-0.4,1.9-0.2,2.4     c0.2,0.6,0.6,1,1.3,1.2c0.4,0.2,0.9,0.2,1.3-0.1C53.7,170.3,54.1,170,54.5,169.5z"/>
			<g>
				<g>
					<polygon fill="#145093" points="60.6,170.8 60.6,172.2 61.9,172.5 62.3,174.6 64.2,174.9 62.5,165.7 60.7,165.3 60.6,165.5        60.6,168.6 61.2,167.5 61.7,171      "/>
					<polygon fill="#145093" points="60.6,168.6 60.6,165.5 55.5,173.3 57.4,173.7 58.5,171.9 60.6,172.2 60.6,170.8 59.4,170.5             "/>
				</g>
			</g>
			<g>
				<g>
					<path fill="#145093" d="M68.5,170.3l0.4,1.9c0.2,0.2,0.4,0.6,0.8,1.2l1.2,2l2,0.1l-0.9-1.7c-0.4-0.7-0.7-1.2-1-1.4       c-0.3-0.3-0.5-0.5-0.9-0.7c0.7-0.1,1.3-0.4,1.7-0.7c0.4-0.4,0.5-1,0.5-1.6c0.1-0.4-0.1-1-0.4-1.3c-0.2-0.4-0.5-0.7-0.9-0.8       c-0.4-0.2-1.1-0.4-1.9-0.4h-0.3l-0.3,1.4c0.4,0,0.8,0.1,0.9,0.1c0.4,0.1,0.8,0.4,0.9,0.5c0.2,0.2,0.3,0.4,0.2,0.7       c0,0.3-0.1,0.4-0.2,0.6c-0.2,0.2-0.4,0.4-0.5,0.4C68.9,170.4,69.1,170.4,68.5,170.3z"/>
					<path fill="#145093" d="M69.3,167.7l-0.2-1.3l-3.3-0.1l-0.4,8.6l1.7,0.1l0.1-3.6h0.4c0.4,0,0.4,0.1,0.8,0.2       c0.2,0.1,0.5,0.4,0.7,0.5c0.1,0,0.3,0.1,0.3,0.1l0.1-2c-0.2,0-0.8-0.1-0.9-0.1l-1.3-0.1l0.1-2.2h1.3       C68.9,167.6,69.2,167.8,69.3,167.7z"/>
				</g>
			</g>
			<g>
				<g>
					<polygon fill="#145093" points="77,171.5 77,173 78.9,172.9 79.9,174.7 81.7,174.6 77.5,166.2 77,166.3 77,169.1 78.2,171.5             "/>
					<polygon fill="#145093" points="77,169.1 77,166.3 75.6,166.4 73.1,175.4 74.8,175.2 75.3,173.2 77,173 77,171.5 75.7,171.7        76.7,168.4      "/>
				</g>
			</g>
			<path fill="#145093" d="M85.9,170.3l-0.4-1.4l3.7-0.8l0.7,3.2c-0.3,0.4-0.7,0.8-1.3,1.3c-0.6,0.5-1.3,0.7-2,0.8     c-0.9,0.2-1.7,0.2-2.4,0s-1.3-0.6-1.9-1.3c-0.4-0.6-0.8-1.3-1-2.2c-0.2-0.8-0.2-1.7,0.1-2.4c0.2-0.8,0.5-1.4,1.3-2     c0.4-0.4,1.1-0.7,1.9-0.8c1.1-0.3,1.9-0.2,2.6,0.1c0.7,0.4,1.3,0.8,1.6,1.6l-1.6,0.7c-0.2-0.4-0.4-0.6-0.9-0.8     c-0.4-0.2-0.8-0.2-1.3-0.1c-0.7,0.2-1.3,0.5-1.6,1.1c-0.4,0.6-0.4,1.3-0.2,2.2c0.2,1,0.6,1.7,1.2,2.2c0.5,0.4,1.3,0.5,2,0.4     c0.4-0.1,0.7-0.2,1-0.4c0.4-0.2,0.6-0.4,0.8-0.7l-0.3-1.1L85.9,170.3z"/>
			<path fill="#145093" d="M88.4,163.8l1.6-0.6l1.7,4.3c0.3,0.7,0.4,1.1,0.5,1.3c0.2,0.3,0.4,0.4,0.8,0.5c0.4,0.1,0.7,0.1,1.2-0.2     c0.4-0.2,0.8-0.4,1-0.7c0.2-0.3,0.2-0.5,0.1-0.8c-0.1-0.4-0.2-0.7-0.4-1.3l-1.8-4.5l1.6-0.6l1.7,4.2c0.4,1,0.6,1.6,0.7,2.1     s0.1,0.8-0.1,1.3c-0.2,0.4-0.4,0.7-0.7,1.1c-0.4,0.4-0.8,0.6-1.4,0.8c-0.8,0.4-1.3,0.4-1.9,0.4c-0.4,0-0.9-0.1-1.3-0.4     c-0.4-0.2-0.6-0.4-0.8-0.7c-0.4-0.4-0.6-1.1-1-2L88.4,163.8z"/>
			<g>
				<g>
					<path fill="#145093" d="M100.7,167.9L100.7,167.9L100.7,167.9z"/>
					<polygon fill="#145093" points="100.7,164 100.7,165.6 103.2,164 104.8,165.3 106.5,164.4 100.7,159.9 100.7,162.2 102,163.1             "/>
					<polygon fill="#145093" points="100.7,162.2 100.7,159.9 99.1,158.7 97.5,159.7 99,168.9 100.7,167.9 100.7,167.9 100.4,165.8        100.7,165.6 100.7,164 99.9,164.3 99.3,160.9      "/>
				</g>
			</g>
		</g>
		<g>
			<g>
				<g>
					<path fill="none" stroke="#145093" stroke-width="2.0514" d="M112.8,130c-1,0.1-1.8-1.3-2.7-1.3c-1.3-0.1-2.2,1.3-3.3,1.3       c-1.1-0.1-2.1-1.3-3.1-1.3c-1.3,0.1-2.2,1.3-3.2,1.3c-1.3-0.1-2.6-1.3-3.9-1.3c-1.3,0-2.2,1.3-3.5,1.3       c-1.3-0.1-2.5-1.3-3.7-1.3c-1.1,0.1-2.2,1.3-3.2,1.3c-1.3,0-2.5-1.3-3.7-1.3c-1.5,0-2.6,1.3-3.9,1.3c-1.2-0.1-2.4-1.3-3.6-1.3       c-1.3,0.1-2.2,1.3-3.2,1.3c-1.3,0-2.7-1.3-4.1-1.3S65,130,63.6,130c-1.2,0.1-2.2-1.3-3.3-1.3c-1.3,0-2.2,1.3-3.2,1.3       c-1.1,0-2.2-1.3-3.3-1.3c-1.2,0-2.1,1.3-3.1,1.3c-1.3,0.1-2.6-1.3-3.9-1.3c-1.5,0.1-2.3,1.3-3.6,1.3c-1.3,0.1-2.2-1.2-3.3-1.3       c-1.3,0-2.4,1.3-3.8,1.2c-1.6,0.2-2.8-1.2-4.1-1.2c-0.9,0-1.3,0.8-2.1,1.3"/>
				</g>
			</g>
			<g>
				<g>
					<path fill="none" stroke="#145093" stroke-width="2.0514" d="M29.3,133c0.7-0.4,1.2-1.3,2.1-1.2c1.3,0,2.4,1.3,4.1,1.1       c1.3,0.2,2.4-1.2,3.8-1.1c1.3,0.1,2.1,1.3,3.3,1.3c1.3,0,2.2-1.3,3.6-1.3c1.3-0.1,2.5,1.3,3.9,1.2c1.1,0,2-1.3,3.1-1.3       c1.2,0,2.2,1.3,3.3,1.3c1.1-0.1,2-1.3,3.2-1.3c1.1-0.1,2.2,1.3,3.3,1.3c1.3-0.1,2.5-1.3,3.9-1.3c1.3,0,2.7,1.3,4.1,1.3       c1.1-0.1,2-1.3,3.2-1.3c1.1,0.1,2.4,1.3,3.6,1.3c1.3-0.1,2.3-1.3,3.9-1.3c1.2,0.1,2.4,1.3,3.7,1.3c1.1,0,2.2-1.3,3.2-1.3       c1.3,0.1,2.4,1.3,3.7,1.3c1.3,0,2.2-1.3,3.5-1.3s2.5,1.3,3.9,1.3c1.1-0.1,2-1.3,3.2-1.3c1.1,0,2.1,1.3,3.1,1.3       c1.2,0,2.2-1.3,3.3-1.3c0.9,0,1.8,1.3,2.7,1.3c0.8,0.1,1.2-0.8,1.8-1.3"/>
				</g>
			</g>
			<g>
				<g>
					<path fill="none" stroke="#145093" stroke-width="2.0514" d="M115.6,136.1c-1,0.4-1.7,1-2.8,1c-1,0.1-1.8-1.3-2.7-1.3       c-1.3-0.1-2.2,1.3-3.3,1.3c-1.1-0.1-2.1-1.3-3.1-1.3c-1.3,0.1-2.2,1.3-3.2,1.3c-1.3-0.1-2.6-1.3-3.9-1.3       c-1.3,0-2.2,1.3-3.5,1.3c-1.3-0.1-2.5-1.3-3.7-1.3c-1.1,0.1-2.2,1.3-3.2,1.3c-1.3,0-2.5-1.3-3.7-1.3c-1.5,0.1-2.6,1.3-3.9,1.3       c-1.2-0.1-2.4-1.3-3.6-1.3c-1.3,0.1-2.2,1.3-3.2,1.3c-1.3,0-2.7-1.3-4.1-1.3c-1.3-0.1-2.5,1.3-3.9,1.3       c-1.2,0.1-2.2-1.3-3.3-1.2c-1.3-0.1-2.2,1.2-3.2,1.3c-1.1,0-2.2-1.3-3.3-1.3s-2.1,1.3-3.1,1.3c-1.3,0.1-2.6-1.3-3.9-1.3       c-1.5,0.1-2.3,1.3-3.6,1.3c-1.3,0.1-2.2-1.1-3.3-1.2c-1.3-0.1-2.4,1.3-3.8,1.1c-1.6,0.2-2.8-1.2-4.1-1.2       c-0.8,0.4-1.7,1.3-2.5,1.2c-1.1-0.1-1.1-0.9-1.9-1.3"/>
				</g>
			</g>
		</g>
		<path fill="#FFFFFF" stroke="#FFFFFF" stroke-width="0.2205" d="M55.4,119.3h39.5l4.4,5.3H57.2C57.1,124.6,55.6,119.5,55.4,119.3z    "/>
		<g>
			<path fill="#009650" stroke="#4A6E6D" stroke-width="0.2205" d="M34,123.7c4.7-0.4,10.3-4.3,14.8-9.9c1.5-2.8,5.1-2.9,6,0     c2.2,6.7,5.8,11.1,11.3,11.9c-2.7-1.4-5-3.2-7.1-5.9c1.6-1.2,2.8-2.5,4-4.4c1.8-3.2,3.9-3.2,5.2,0c2.5,5.4,5.3,8.8,8.5,9.5     c-2.2-1.5-4.1-3.3-5.7-6.1c0.8-1,1.5-2.1,2.2-3.1c1.3-2.7,2.6-2.6,4.1,0c3.5,4.7,6.4,7.4,8.8,8.9c-1.8-1.6-3.3-3.3-4.6-5.7     c1-1,1.6-1.9,2.2-2.8c1.3-2.7,2.7-3,4.5,0c2.4,3.6,5.2,6.3,8.3,8.3c-2.2-2-4.1-4.2-5.1-6.3c0.5-0.4,0.9-0.6,1.2-1     c1.3-2.4,2.6-1.9,4.3,0c3.9,4.6,8.5,8.6,12.5,7.7l0.8,2.5l-77.6-0.4L34,123.7z"/>
			<g>
				<g>
					<path fill="#009650" stroke="#FFFFFF" stroke-width="2.2146" d="M112.8,127.4c-1,0-1.8-1-2.7-1c-1.3-0.1-2.2,1-3.3,1       c-1.1-0.1-2.1-0.9-3.1-0.9c-1.3,0.1-2.2,1-3.2,1c-1.3-0.1-2.6-1-3.9-1c-1.3,0-2.2,1-3.5,1c-1.3-0.1-2.5-1-3.7-1.1       c-1.1,0.1-2.2,1-3.2,1.1c-1.3,0-2.5-1.1-3.7-1.1c-1.5,0-2.5,1.1-3.9,1.1c-1.2-0.1-2.4-1.1-3.5-1.2c-1.3,0.1-2.2,1.1-3.2,1.2       c-1.3,0-2.6-1.2-4-1.2c-1.3,0-2.6,1.1-3.9,1.1c-1.2,0-2.2-1.3-3.3-1.3c-1.3,0-2.2,1.1-3.2,1.2c-1.1-0.1-2.2-1.2-3.3-1.2       c-1.2,0-2.1,1.1-3.1,1.1c-1.3,0.1-2.6-1.2-3.9-1.1c-1.5,0.1-2.3,1.1-3.6,1.1c-1.3,0.1-2.2-1-3.3-1.1c-1.3,0-2.4,1.3-3.7,1.1       c-1.7,0.1-2.9-1.1-4.1-1.1"/>
				</g>
			</g>
		</g>
		<path fill="#EA212E" stroke="#EA212E" stroke-width="0.2205" d="M72.4,107.6h-1.5c-0.1-1-0.4-1.7-0.9-2.2c-2-1.3-2-3.9-0.6-5.5    c0.5-0.4,1.6-1.5,0.6-1.7c-1.1-0.2-1-1.3,0.3-1.5c3.6-0.4,4.8,2.2,5,7.6C73.4,103.9,72.6,105.3,72.4,107.6z"/>
		<polygon fill="none" stroke="#FAB960" stroke-width="5.1696" points="24.5,140.6 71.8,57.3 119.1,140.6   "/>
	</g>
	<g>
		<g>
			<path fill="#FAB960" d="M11.5,46.1c0.4-0.4,0.7-0.5,1.2-1c1.3,1.5,2.1,2.2,3.5,3.8c-0.3,0.3-0.4,0.4-0.8,0.6     c-1-1-1.4-1.5-2.3-2.6c-0.1-0.1-0.2-0.2-0.3-0.3c-0.1-0.1-0.2-0.3-0.3-0.3c0.9,1.5,1.3,2.2,2.2,3.8c-0.4,0.3-0.4,0.4-0.8,0.6     c-1.5-1.1-2.2-1.5-3.7-2.6c0.1,0.1,0.2,0.2,0.3,0.3c0.1,0.1,0.2,0.3,0.3,0.3c0.9,1,1.4,1.5,2.3,2.6c-0.3,0.3-0.4,0.4-0.8,0.6     c-1.4-1.5-2.1-2.2-3.5-3.9c0.4-0.4,0.7-0.5,1.3-1c1.3,1,2.1,1.4,3.5,2.4C12.8,48.3,12.3,47.6,11.5,46.1z"/>
			<path fill="#FAB960" d="M18.7,47.4c-0.4,0.3-0.5,0.4-0.9,0.6c-1.3-1.6-2-2.3-3.2-4c0.4-0.3,0.5-0.4,0.9-0.6     C16.7,44.9,17.4,45.7,18.7,47.4z"/>
			<path fill="#FAB960" d="M17.3,42c0.4-0.3,0.5-0.4,1-0.6c1.5,0.7,2.2,1.1,3.8,1.8c-0.8-1.2-1.3-1.7-2.1-2.9     c0.4-0.2,0.5-0.4,0.8-0.5c1.2,1.6,1.8,2.4,3,4.1c-0.4,0.3-0.5,0.4-0.9,0.5c-1.5-0.7-2.3-1.1-3.9-1.8c0.8,1.2,1.3,1.8,2.1,3     c-0.4,0.2-0.5,0.4-0.8,0.5C19,44.6,18.5,43.7,17.3,42z"/>
			<path fill="#FAB960" d="M26.2,42.6c-0.4,0.2-0.5,0.4-0.9,0.5c-1.1-1.7-1.6-2.5-2.7-4.2c0.4-0.2,0.5-0.3,0.9-0.5     C24.6,40,25.1,40.9,26.2,42.6z"/>
			<path fill="#FAB960" d="M27.7,39.9c0.2,0.2,0.3,0.3,0.4,0.4c0.3,0.1,0.5,0.1,1-0.2c0.3-0.1,0.4-0.3,0.5-0.4     c0.2-0.3,0.3-0.4,0.1-0.7c-0.1-0.2-0.2-0.2-0.4-0.3c-0.2,0-0.4,0-0.7,0.1c-0.2,0.1-0.4,0.1-0.5,0.2c-0.5,0.2-0.9,0.2-1.2,0.2     c-0.4-0.1-0.7-0.3-1-0.7c-0.2-0.4-0.3-0.8-0.1-1.2c0.2-0.4,0.5-0.7,1.1-1.1c0.4-0.3,1-0.4,1.4-0.3c0.4,0.1,0.8,0.4,1.2,0.8     c-0.4,0.2-0.5,0.3-0.9,0.4c-0.2-0.3-0.4-0.4-0.7-0.4c-0.2,0-0.4,0.1-0.6,0.2c-0.2,0.1-0.4,0.3-0.5,0.4c-0.1,0.2-0.1,0.4,0,0.5     c0.1,0.2,0.3,0.3,0.4,0.3c0.1,0,0.4,0,0.7-0.1c0.4-0.1,0.5-0.2,0.9-0.3c0.4-0.1,0.7-0.1,1-0.1c0.4,0.1,0.7,0.3,0.9,0.7     c0.3,0.4,0.3,0.8,0.1,1.3c-0.2,0.4-0.5,0.8-1.2,1.1C29,41,28.4,41.1,28,41.1c-0.4-0.1-0.9-0.4-1.1-0.8     C27.2,40.2,27.4,40.1,27.7,39.9z"/>
			<path fill="#FAB960" d="M34,33.1c0.2,0.4,0.3,0.4,0.4,0.8c-0.5,0.3-0.8,0.4-1.3,0.6c0.7,1.4,1.1,2.2,1.8,3.7     c-0.4,0.2-0.6,0.3-1,0.4c-0.7-1.4-1.1-2.2-1.8-3.7c-0.5,0.3-0.8,0.4-1.4,0.6c-0.2-0.4-0.3-0.4-0.4-0.8     C31.8,34.1,32.6,33.8,34,33.1z"/>
			<path fill="#FAB960" d="M39.7,32c-1,0.4-1.5,0.5-2.5,0.9c0.2,0.4,0.3,0.6,0.4,1c0.9-0.4,1.3-0.5,2.3-0.9c0.1,0.4,0.2,0.4,0.4,0.8     c-0.9,0.4-1.3,0.5-2.3,0.9c0.2,0.4,0.3,0.7,0.4,1.2c1.1-0.4,1.6-0.6,2.6-1c0.2,0.4,0.2,0.5,0.4,0.8c-1.4,0.5-2.2,0.8-3.6,1.3     c-0.7-1.9-1.1-2.8-1.8-4.6c1.3-0.5,2.1-0.8,3.3-1.3C39.5,31.4,39.6,31.6,39.7,32z"/>
			<path fill="#FAB960" d="M44.5,29.6c0.2,0,0.4,0.1,0.5,0.2c0.2,0.1,0.3,0.2,0.4,0.4c0.1,0.1,0.2,0.3,0.3,0.4     c0.1,0.2,0.1,0.4,0,0.7c-0.1,0.3-0.4,0.6-0.4,0.6s0.4,0.1,0.6,0.3c0.2,0.1,0.3,0.4,0.4,0.7c0,0.1,0.1,0.2,0.1,0.4     c0.1,0.2,0.1,0.4,0.2,0.4c0.1,0.1,0.2,0.2,0.3,0.2c0,0.1,0,0.1,0,0.1c-0.4,0.2-0.6,0.2-1.1,0.4c-0.1-0.1-0.1-0.2-0.2-0.3     c-0.1-0.1-0.1-0.3-0.2-0.4c-0.1-0.2-0.1-0.3-0.2-0.4c-0.1-0.3-0.2-0.4-0.4-0.5c-0.1-0.1-0.4-0.1-0.6,0c-0.4,0.1-0.6,0.2-1,0.3     c0.3,0.7,0.4,1.1,0.6,1.9c-0.4,0.1-0.6,0.2-1,0.3c-0.6-1.9-0.9-2.9-1.5-4.8c0.9-0.3,1.3-0.4,2.3-0.7C44,29.6,44.3,29.6,44.5,29.6     z M42.6,31.1c0.2,0.5,0.3,0.7,0.4,1.3c0.4-0.1,0.6-0.2,1.1-0.4c0.2-0.1,0.4-0.2,0.4-0.2c0.2-0.2,0.2-0.4,0.1-0.6     c-0.1-0.3-0.3-0.4-0.4-0.4c-0.1,0-0.3,0-0.4,0.1C43.3,30.8,43,30.9,42.6,31.1z"/>
			<path fill="#FAB960" d="M49.5,33.2c-0.4,0.1-0.6,0.2-1,0.3c-0.5-1.9-0.7-2.9-1.3-4.8c0.4-0.1,0.6-0.2,1-0.3     C48.8,30.4,49.1,31.3,49.5,33.2z"/>
			<path fill="#FAB960" d="M55.1,31.6c-0.3,0.4-0.8,0.7-1.5,0.9c-0.7,0.2-1.3,0-1.7-0.3c-0.5-0.4-1-1-1.2-1.9     c-0.2-0.9,0-1.6,0.4-2.2c0.3-0.4,0.8-0.7,1.5-0.9c0.7-0.2,1.3,0,1.7,0.3c0.5,0.4,1,1,1.2,1.9C55.5,30.3,55.4,31.1,55.1,31.6z      M54.4,31.1c0.2-0.4,0.2-0.8,0.1-1.3c-0.1-0.5-0.4-0.9-0.6-1.2c-0.3-0.3-0.6-0.4-1.1-0.3c-0.4,0.1-0.7,0.3-0.9,0.6     c-0.2,0.3-0.2,0.8-0.1,1.3c0.1,0.5,0.4,0.9,0.6,1.2c0.3,0.3,0.6,0.4,1.1,0.3C53.8,31.6,54.2,31.3,54.4,31.1z"/>
			<path fill="#FAB960" d="M62.8,26.2c0.4,0.1,0.6,0.3,0.9,0.5c0.2,0.3,0.4,0.4,0.4,0.7c0.1,0.3,0.2,0.5,0.2,0.8     c0.1,0.6,0,1.3-0.2,1.7c-0.3,0.6-0.8,1-1.6,1.1c-0.9,0.1-1.3,0.1-2.2,0.2c-0.2-2-0.3-3-0.4-4.9c0.8-0.1,1.3-0.1,2.2-0.2     C62.4,26.1,62.6,26.1,62.8,26.2z M61.1,27.1c0.1,1.3,0.2,1.9,0.3,3.2c0.4,0,0.5-0.1,1-0.1c0.4-0.1,0.8-0.4,1-0.8     c0.1-0.3,0.1-0.6,0.1-1c-0.1-0.5-0.2-0.9-0.4-1.2c-0.2-0.3-0.5-0.4-1-0.3C61.6,27,61.5,27.1,61.1,27.1z"/>
			<path fill="#FAB960" d="M69.8,26.6c-1.1,0-1.6,0.1-2.6,0.1c0,0.4,0,0.6,0,1.1c1,0,1.4-0.1,2.4-0.1c0,0.4,0,0.5,0,0.9     c-1,0-1.4,0-2.4,0c0,0.5,0,0.7,0,1.3c1.1,0,1.6-0.1,2.8-0.1c0,0.4,0,0.5,0,0.9c-1.5,0.1-2.2,0.1-3.8,0.1c-0.1-2-0.1-3-0.2-4.9     c1.4,0,2.2-0.1,3.6-0.1C69.8,25.9,69.8,26.2,69.8,26.6z"/>
			<path fill="#FAB960" d="M78.3,27.6c-0.1-0.4-0.3-0.6-0.5-0.7c-0.2-0.1-0.4-0.1-0.5-0.2c-0.4,0-0.7,0.1-1,0.4     c-0.3,0.3-0.4,0.7-0.4,1.3c0,0.6,0.1,1.1,0.4,1.3c0.3,0.3,0.5,0.4,0.9,0.4c0.4,0,0.6-0.1,0.9-0.3c0.3-0.2,0.4-0.4,0.4-0.7     c-0.4,0-0.7,0-1.2-0.1c0-0.4,0-0.4,0.1-0.8c0.8,0.1,1.3,0.1,2.1,0.1c-0.1,1.1-0.1,1.6-0.2,2.6c-0.3,0-0.4,0-0.7,0     c0-0.3,0-0.4-0.1-0.6c-0.2,0.2-0.4,0.4-0.5,0.4c-0.3,0.2-0.6,0.2-1.1,0.2c-0.6,0-1.2-0.3-1.6-0.8c-0.4-0.4-0.6-1.1-0.5-1.9     c0.1-0.8,0.4-1.4,0.8-1.9c0.4-0.4,1.1-0.6,1.8-0.6c0.6,0,1.1,0.3,1.5,0.5c0.4,0.4,0.5,0.7,0.6,1.3C78.8,27.6,78.7,27.6,78.3,27.6     z"/>
			<path fill="#FAB960" d="M84.9,31.2c-0.4,0.4-1,0.4-1.7,0.4c-0.7-0.1-1.3-0.4-1.5-0.8c-0.4-0.5-0.6-1.3-0.4-2.2     c0.1-0.9,0.5-1.5,1.1-1.9c0.4-0.3,1-0.4,1.7-0.4c0.7,0.1,1.2,0.4,1.5,0.8c0.4,0.5,0.6,1.3,0.4,2.2C85.8,30.2,85.4,30.9,84.9,31.2     z M84.3,30.4c0.3-0.3,0.4-0.7,0.5-1.3c0.1-0.5,0-1-0.2-1.3c-0.2-0.4-0.5-0.5-0.9-0.5c-0.4-0.1-0.7,0.1-1.1,0.4     c-0.3,0.3-0.4,0.6-0.5,1.3c-0.1,0.5,0,1,0.2,1.3c0.2,0.4,0.5,0.5,0.9,0.5C83.7,30.9,84.1,30.8,84.3,30.4z"/>
			<path fill="#FAB960" d="M91.8,28.5c0.1,0.3,0.1,0.5,0.1,0.8c-0.1,0.3-0.2,0.5-0.4,0.6c-0.1,0.1-0.4,0.2-0.4,0.2s0.4,0.4,0.4,0.5     c0.1,0.2,0.1,0.4,0.1,0.7c-0.1,0.3-0.2,0.5-0.4,0.7c-0.1,0.1-0.3,0.3-0.4,0.3c-0.2,0.1-0.4,0.1-0.6,0.1c-0.2,0-0.4,0-0.7-0.1     c-0.9-0.2-1.3-0.3-2.2-0.4c0.4-1.9,0.6-2.9,1.1-4.9c0.9,0.2,1.4,0.3,2.3,0.4C91.2,27.8,91.6,28.1,91.8,28.5z M88.6,30.2     c-0.1,0.5-0.2,0.8-0.3,1.3c0.4,0.1,0.7,0.2,1.2,0.3c0.2,0,0.4,0.1,0.5,0c0.3-0.1,0.4-0.3,0.4-0.5c0.1-0.3,0-0.4-0.2-0.5     c-0.1-0.1-0.3-0.2-0.4-0.2C89.4,30.3,89.1,30.3,88.6,30.2z M89,28.3c-0.1,0.4-0.2,0.6-0.3,1.1c0.4,0.1,0.7,0.2,1.2,0.3     c0.2,0,0.4,0,0.5,0c0.2-0.1,0.3-0.2,0.3-0.4c0.1-0.2,0-0.4-0.2-0.5c-0.1-0.1-0.4-0.2-0.5-0.2C89.6,28.4,89.5,28.4,89,28.3z"/>
			<path fill="#FAB960" d="M97.7,30.3c-1-0.3-1.5-0.4-2.6-0.7c-0.1,0.4-0.2,0.6-0.3,1c0.9,0.3,1.4,0.4,2.3,0.6     c-0.1,0.4-0.2,0.5-0.3,0.8c-1-0.3-1.4-0.4-2.3-0.6c-0.2,0.4-0.2,0.7-0.4,1.3c1.1,0.3,1.6,0.4,2.7,0.7c-0.1,0.4-0.2,0.5-0.3,0.9     c-1.5-0.4-2.2-0.6-3.7-1c0.5-1.9,0.8-2.9,1.3-4.8c1.4,0.4,2.2,0.5,3.5,1C97.9,29.8,97.8,30,97.7,30.3z"/>
			<path fill="#FAB960" d="M103.1,31.2c0.2,0.1,0.3,0.3,0.4,0.4c0.1,0.2,0.1,0.3,0.1,0.4c0,0.1,0,0.4-0.1,0.5     c-0.1,0.2-0.2,0.4-0.4,0.6c-0.2,0.2-0.7,0.3-0.7,0.3s0.3,0.4,0.4,0.5c0,0.2,0,0.4-0.1,0.8c-0.1,0.1-0.1,0.2-0.1,0.3     c-0.1,0.2-0.1,0.4-0.1,0.4c0,0.1,0,0.3,0.1,0.4c0,0.1,0,0.1,0,0.1c-0.4-0.2-0.6-0.2-1.1-0.4c0-0.1,0-0.2,0-0.3     c0-0.2,0.1-0.3,0.1-0.4c0.1-0.2,0.1-0.3,0.2-0.4c0.1-0.3,0.1-0.5,0.1-0.6c-0.1-0.1-0.3-0.3-0.5-0.4c-0.4-0.1-0.6-0.2-1-0.4     c-0.3,0.7-0.4,1.1-0.6,1.8c-0.4-0.1-0.6-0.2-1-0.4c0.7-1.9,1-2.8,1.7-4.7c0.9,0.3,1.3,0.4,2.2,0.8     C102.7,31.1,103,31.2,103.1,31.2z M100.9,31.2c-0.2,0.5-0.3,0.7-0.4,1.3c0.4,0.2,0.6,0.2,1.1,0.4c0.2,0.1,0.4,0.1,0.5,0.1     s0.4-0.2,0.4-0.4c0.1-0.3,0.1-0.5-0.1-0.6c-0.1-0.1-0.3-0.2-0.4-0.3C101.4,31.5,101.3,31.4,100.9,31.2z"/>
			<path fill="#FAB960" d="M106,32.2c0.4,0.2,0.6,0.3,1,0.4c0.2,1.6,0.3,2.3,0.4,4c0.5-1.3,0.8-1.9,1.4-3.1c0.4,0.2,0.5,0.2,0.9,0.4     c-0.8,1.8-1.2,2.7-2,4.6c-0.4-0.2-0.6-0.3-1-0.4c-0.2-1.6-0.3-2.4-0.4-4.1c-0.5,1.3-0.9,2-1.4,3.2c-0.4-0.2-0.5-0.3-0.9-0.4     C104.8,34.9,105.2,34,106,32.2z"/>
			<path fill="#FAB960" d="M113.2,35.3c0.4,0.2,0.6,0.4,1.1,0.5c-0.3,2.1-0.4,3.1-0.7,5.2c-0.4-0.2-0.6-0.3-1.1-0.5     c0.1-0.4,0.1-0.6,0.2-1.1c-0.7-0.4-1-0.4-1.7-0.8c-0.4,0.3-0.4,0.4-0.8,0.7c-0.4-0.2-0.6-0.3-1-0.5     C110.8,37.6,111.6,36.8,113.2,35.3z M111.7,38.1c0.4,0.3,0.7,0.4,1.2,0.5c0.2-0.8,0.2-1.2,0.4-2     C112.6,37.2,112.2,37.5,111.7,38.1z"/>
			<path fill="#FAB960" d="M117.8,38.3c0.5-0.2,1.2-0.1,1.7,0.3c0.7,0.4,1.2,1,1.2,1.6c0,0.4,0,0.7-0.2,1c-0.4-0.2-0.5-0.3-0.9-0.5     c0.1-0.3,0.1-0.4,0.1-0.6c-0.1-0.3-0.3-0.5-0.5-0.7c-0.4-0.2-0.6-0.2-1-0.1c-0.4,0.2-0.7,0.4-1,0.9c-0.3,0.4-0.4,0.9-0.4,1.3     c0.1,0.4,0.3,0.6,0.5,0.8c0.4,0.2,0.6,0.2,0.9,0.1c0.2-0.1,0.4-0.2,0.5-0.4c0.4,0.2,0.5,0.3,0.9,0.5c-0.4,0.4-0.8,0.7-1.3,0.8     c-0.5,0.1-1,0-1.5-0.3c-0.6-0.4-1-0.8-1.1-1.4c-0.1-0.6,0.1-1.3,0.5-1.9C116.4,38.9,117.2,38.4,117.8,38.3z"/>
			<path fill="#FAB960" d="M120.9,45.4c-0.4-0.3-0.5-0.4-0.9-0.5c1.2-1.6,1.8-2.4,3-4.1c0.4,0.3,0.5,0.4,0.9,0.5     C122.8,42.9,122.1,43.7,120.9,45.4z"/>
			<path fill="#FAB960" d="M126,48.4c-0.5,0.1-1.2-0.1-1.7-0.5c-0.6-0.4-0.9-0.9-1-1.4c-0.1-0.6,0.1-1.3,0.7-2.1     c0.6-0.7,1.3-1.1,2-1.2c0.5-0.1,1.2,0.1,1.7,0.5c0.6,0.4,0.9,0.9,1,1.4c0.1,0.6-0.1,1.3-0.7,2.1C127.3,48,126.7,48.3,126,48.4z      M126,47.4c0.4-0.1,0.8-0.4,1.2-0.8c0.4-0.4,0.5-0.9,0.5-1.3s-0.2-0.7-0.5-1c-0.4-0.3-0.7-0.4-1.1-0.2c-0.4,0.1-0.8,0.4-1.2,0.8     c-0.4,0.4-0.5,0.9-0.5,1.3c0,0.4,0.2,0.7,0.5,1C125.2,47.4,125.5,47.5,126,47.4z M129.6,43.2c-0.6,0.1-0.9,0.1-1.5,0.2     c-0.3-0.2-0.4-0.3-0.5-0.4c0.4-0.2,0.7-0.3,1.2-0.4C129,42.8,129.2,42.9,129.6,43.2z"/>
			<path fill="#FAB960" d="M131.2,46.5c0.4,0.3,0.5,0.4,0.9,0.7c-0.4,1.5-0.5,2.3-0.9,3.9c1-1.1,1.5-1.5,2.5-2.6     c0.3,0.3,0.4,0.4,0.8,0.6c-1.4,1.5-2.2,2.2-3.6,3.8c-0.4-0.3-0.5-0.4-0.8-0.7c0.4-1.6,0.5-2.4,0.9-4c-1,1.1-1.5,1.6-2.5,2.6     c-0.3-0.3-0.4-0.4-0.8-0.6C129.1,48.8,129.9,48,131.2,46.5z"/>
		</g>
	</g>
</g>
<path fill="#0E4E95" d="M18,71.4c0.5-0.1,1.1-0.5,1.4-0.9c0.6-0.7,0.5-1.4-0.1-1.9c-0.6-0.6-1.2-0.5-2.3-0.3  c-1.6,0.3-2.9-0.1-3.7-0.8c-1.4-1.3-1.8-3.1-0.4-4.7c0.4-0.5,1-0.8,1.4-0.9l1.2,1.5c-0.3,0.1-0.8,0.3-1.1,0.7  c-0.5,0.6-0.4,1.3,0.1,1.7c0.5,0.5,1,0.5,2.2,0.2c1.6-0.3,2.8,0.1,3.8,0.9c1.6,1.4,1.7,3.5,0.4,4.9c-0.5,0.6-1.2,1-1.6,1.1L18,71.4  L18,71.4z M17,58.9l8.1,8.5l-1.4,1.3l-8.1-8.5L17,58.9L17,58.9z M24.6,64.6c0.5-0.1,1.1-0.3,1.5-0.7c0.7-0.6,0.7-1.3,0.2-1.9  c-0.5-0.7-1.1-0.7-2.2-0.6c-1.7,0.1-2.8-0.5-3.6-1.3c-1.2-1.4-1.4-3.3,0.2-4.7c0.5-0.4,1.1-0.6,1.5-0.7l1,1.7  c-0.3,0-0.8,0.1-1.2,0.5c-0.6,0.5-0.6,1.2-0.2,1.7c0.4,0.5,0.9,0.6,2.2,0.5c1.6-0.1,2.7,0.5,3.6,1.4c1.3,1.6,1.2,3.6-0.3,4.9  c-0.6,0.5-1.4,0.8-1.8,0.9L24.6,64.6L24.6,64.6z M26,54.2l-1.4,1l-1.2-1.7l4.5-3.1l1.2,1.7l-1.4,1l5.5,7.9l-1.6,1.1L26,54.2z   M36.4,53.1l-1.9,1.1l1.6,2.7l2.2-1.3l1,1.7l-4,2.2l-5.9-10.1l3.8-2.1l1,1.7l-2,1.2l1.3,2.3l1.9-1.1L36.4,53.1L36.4,53.1z M44,50.5  c-0.5-1-1.2-2.3-1.6-3.6l0,0c0.3,1.2,0.7,2.6,0.9,3.6l0.9,4.2L43,55.2l-2.4-3.5c-0.5-0.8-1.4-2-2-3.1l0,0c0.5,1.2,1,2.5,1.4,3.7  l1.5,3.8L40,56.8l-4.1-11.2l1.9-0.8l2.4,3.6c0.8,1.2,1.6,2.3,2.3,3.5l0,0c-0.4-1.2-0.7-2.5-1.1-4.1l-1-4.3l1.8-0.8l5.3,10.7  l-1.6,0.7L44,50.5L44,50.5z M50.2,48.1l-1-2.2c-0.3-0.6-0.8-1.7-1.1-2.4l0,0c0.1,0.8,0.4,2,0.5,2.6l0.4,2.4L50.2,48.1L50.2,48.1z   M49.2,50.2l0.4,2.7l-1.8,0.6l-1.4-12.1l2.2-0.7L54,51.5l-1.8,0.6L51,49.7L49.2,50.2L49.2,50.2z M57.9,44.2c0.1,0,0.2,0,0.3,0  c0.9-0.2,1.2-1,1-2.1c-0.2-1-0.7-1.7-1.5-1.6c-0.2,0-0.3,0.1-0.4,0.2L57.9,44.2L57.9,44.2z M55,39.4c0.5-0.2,1.2-0.4,1.9-0.6  c1.1-0.2,2-0.2,2.8,0.4c0.7,0.5,1.1,1.4,1.3,2.4c0.2,1.2,0.1,2.2-0.3,2.9c-0.5,0.8-1.4,1.4-2.2,1.5c-0.1,0-0.3,0-0.4,0.1l0.8,4.4  l-1.9,0.3L55,39.4L55,39.4z M67.4,44.1l-2.2,0.2l0.3,3.1l2.5-0.2l0.2,1.9l-4.5,0.4l-1.1-11.8l4.4-0.4l0.2,2l-2.4,0.2l0.2,2.6  l2.2-0.2L67.4,44.1L67.4,44.1z M69.1,49.3l-0.2-11.9h1.7l1.6,4.6c0.3,0.9,0.8,2.4,1.1,3.5l0,0c-0.1-1.2-0.2-3.2-0.3-5.5v-2.6h1.8  L75,49.3h-1.8l-1.6-4.5c-0.3-1-0.8-2.4-1-3.6l0,0c0.1,1.2,0.2,3,0.2,5.4v2.6L69.1,49.3L69.1,49.3z M79.4,37.8l-0.8,11.9l-1.9-0.1  l0.8-11.9L79.4,37.8L79.4,37.8z M82.6,40.2L80.9,40l0.3-2.1l5.5,0.8l-0.3,2.1l-1.7-0.2l-1.3,9.5l-1.9-0.3L82.6,40.2L82.6,40.2z   M91,46.5l-2.2-0.5l-0.7,3.1l2.5,0.6l-0.4,1.9l-4.5-1L88.2,39l4.3,0.9l-0.4,1.9l-2.3-0.5l-0.6,2.6l2.2,0.5L91,46.5L91,46.5z   M91.1,51.8l3.7-11.3l1.7,0.5v4.9c0,0.9,0,2.5,0,3.6l0,0c0.3-1.2,0.8-3.1,1.5-5.3l0.8-2.4l1.6,0.5l-3.6,11.2L95.1,53L95,48.2  c0-1,0-2.6,0.1-3.7l0,0c-0.3,1.1-0.8,2.9-1.5,5.2l-0.8,2.5L91.1,51.8L91.1,51.8z M102.7,55.9c-0.3,0-0.9-0.1-1.5-0.3  c-2.3-1-2.5-3.8-1.2-6.8c1.7-4.1,4.4-4.9,6.1-4.1c0.6,0.3,1,0.6,1.1,0.8l-1,1.6c-0.2-0.2-0.3-0.4-0.7-0.6c-1-0.4-2.3,0.2-3.6,2.8  c-1.1,2.5-0.7,4,0.4,4.5c0.3,0.1,0.7,0.2,0.9,0.2L102.7,55.9L102.7,55.9z M110.5,46.9l-5.4,10.6l-1.7-0.9l5.4-10.6L110.5,46.9  L110.5,46.9z M111.6,55.9l1-2.2c0.3-0.7,0.8-1.7,1.1-2.4l0,0c-0.5,0.6-1.2,1.6-1.7,2.1l-1.6,1.9L111.6,55.9L111.6,55.9z M109.3,56.6  l-1.8,2l-1.6-1l8-8.9l2,1.2L111.4,61l-1.6-1l1-2.5L109.3,56.6L109.3,56.6z M117.6,57.5l0.3,0.2c0.7,0.5,1.5,0.2,2.1-0.7  c0.6-0.8,0.7-1.5,0.1-2.1c-0.1-0.1-0.3-0.2-0.4-0.2L117.6,57.5L117.6,57.5z M119.1,52.3c0.6,0.3,1.2,0.6,1.8,1.1  c0.8,0.6,1.5,1.3,1.6,2.3c0.1,0.9-0.2,1.6-0.8,2.4c-0.7,1-1.8,1.6-3,1.4l0,0c0.4,0.7,0.2,1.4-0.4,2.6c-0.6,1.1-1.3,2.4-1.4,2.9  l-1.6-1.2c0.1-0.3,0.6-1.4,1.3-2.5c0.7-1.3,0.7-1.8,0.2-2.2l-0.2-0.2l-2.8,3.8l-1.5-1.2L119.1,52.3L119.1,52.3z M126.7,58.3  l-7.8,8.8l-1.4-1.3l7.8-8.8L126.7,58.3L126.7,58.3z M125.4,64.9c-1.9,1.8-2.6,3.1-2,3.7c0.6,0.6,2-0.4,3.8-2c1.5-1.4,2.6-2.9,2-3.6  C128.6,62.5,127.2,63.2,125.4,64.9 M128.6,68.1c-3.1,3-5.4,3.3-6.7,2c-1.5-1.6-0.1-4.3,2.1-6.5c2.3-2.2,5.1-3.3,6.6-1.8  C132.3,63.4,130.5,66.1,128.6,68.1"/>
</svg>